Patient4_TMGait_0pt5_01_right_28_GRF.mot
version=1
nRows=26
nColumns=19
inDegrees=no
endheader
time	F1x	F1y	F1z	M1x	M1y	M1z	F2x	F2y	F2z	M2x	M2y	M2z	EC1x	EC1y	EC1z	EC2x	EC2y	EC2z
36.75	-1.6745	714.5413	67.0536	-243.0245	-57.4387	651.6159	-12.3077	2.9182	3.7	0.23775	-4.208	0.63938	-0.0592	0.0182	-0.0073	-0.0462	0.0165	0.9585
36.7631	-0.51121	714.5475	64.8327	-243.0902	-55.0922	646.8663	-8.4218	2.7279	2.4398	0.47063	-2.6857	1.2283	-0.0592	0.0182	-0.0073	-0.0462	0.0165	0.9585
36.7763	1.0205	715.9597	62.6056	-243.6366	-52.5056	642.9686	-5.1422	2.6177	1.3779	0.68519	-1.4085	1.7752	-0.0592	0.0182	-0.0073	-0.0462	0.0165	0.9585
36.7894	2.887	719.2112	60.4951	-244.8356	-49.8052	640.47	-2.6547	2.5885	0.56695	0.86708	-0.43624	2.2337	-0.0592	0.0182	-0.0073	-0.0462	0.0165	0.9585
36.8026	5.0519	724.414	58.6009	-246.75	-47.1111	639.5551	-0.95299	2.6251	0.0039566	1.0124	0.24163	2.5917	-0.0592	0.0182	-0.0073	-0.0462	0.0165	0.9585
36.8157	7.5142	731.3296	56.9691	-249.3145	-44.4925	640.0473	0.076544	2.6984	-0.35002	1.1197	0.68026	2.858	-0.0592	0.0182	-0.0073	-0.0462	0.0165	0.9585
36.8289	10.2849	739.43	55.639	-252.3527	-42.0044	641.4996	0.59456	2.7592	-0.54154	1.1836	0.94114	3.0183	-0.0592	0.0182	-0.0073	-0.0462	0.0165	0.9585
36.842	13.3935	748.0078	54.6164	-255.6156	-39.6605	643.2991	0.74904	2.7559	-0.61887	1.1944	1.0795	3.0532	-0.0592	0.0182	-0.0073	-0.0462	0.0165	0.9585
36.8551	16.8456	756.2683	53.9106	-258.814	-37.4779	644.7738	0.68063	2.6069	-0.62453	1.1298	1.1353	2.8977	-0.0592	0.0182	-0.0073	-0.0462	0.0165	0.9585
36.8683	20.6151	763.4699	53.5057	-261.6685	-35.4592	645.3299	0.49476	2.2168	-0.59096	0.9585	1.1336	2.4725	-0.0592	0.0182	-0.0073	-0.0462	0.0165	0.9585
36.8814	24.6371	769.0434	53.3727	-263.9536	-33.6098	644.5485	0.2784	1.4709	-0.54158	0.64094	1.0907	1.67	-0.0592	0.0182	-0.0073	-0.0462	0.0165	0.9585
36.8946	28.7634	772.6327	53.4727	-265.5142	-31.9494	642.2274	0.091158	0.27179	-0.48914	0.14032	1.0184	0.40106	-0.0592	0.0182	-0.0073	-0.0462	0.0165	0.9585
36.9077	32.8284	774.0938	53.7721	-266.2684	-30.5029	638.3431	-0.011853	-1.4394	-0.44098	-0.56633	0.91618	-1.3972	-0.0592	0.0182	-0.0073	-0.0462	0.0165	0.9585
36.9209	36.6464	773.4715	54.2607	-266.1985	-29.3119	633.0425	0.019668	-3.6445	-0.39175	-1.4707	0.76731	-3.709	-0.0592	0.0182	-0.0073	-0.0462	0.0165	0.9585
36.934	40.0842	770.9538	54.947	-265.3404	-28.4173	626.569	0.23377	-6.1802	-0.3335	-2.5061	0.55033	-6.3631	-0.0592	0.0182	-0.0073	-0.0462	0.0165	0.9585
36.9471	43.0524	766.8822	55.8576	-263.7923	-27.8609	619.2636	0.68394	-8.6581	-0.25639	-3.5136	0.23578	-8.9494	-0.0592	0.0182	-0.0073	-0.0462	0.0165	0.9585
36.9603	45.5164	761.7562	57.0095	-261.7231	-27.6601	611.5605	1.4105	-10.3681	-0.15395	-4.2051	-0.20116	-10.719	-0.0592	0.0182	-0.0073	-0.0462	0.0165	0.9585
36.9734	47.497	756.1541	58.4258	-259.3449	-27.8182	603.9114	2.4432	-10.2046	-0.021367	-4.1285	-0.77497	-10.5122	-0.0592	0.0182	-0.0073	-0.0462	0.0165	0.9585
36.9866	49.0649	750.6015	60.0918	-256.8641	-28.2972	596.6934	3.7526	-6.5858	0.13335	-2.638	-1.4607	-6.6572	-0.0592	0.0182	-0.0073	-0.0462	0.0165	0.9585
36.9997	50.3524	745.3676	61.9398	-254.4143	-29.0065	590.0474	5.2281	2.5208	0.29292	1.0953	-2.1864	2.9826	-0.0592	0.0182	-0.0073	-0.0462	0.0165	0.9585
37.0129	51.5183	740.3346	63.7989	-252.0087	-29.7701	583.8064	6.6166	19.4411	0.41695	8.0199	-2.7931	20.86	-0.0592	0.0182	-0.0073	-0.0462	0.0165	0.9585
37.026	52.7101	734.8744	65.4098	-249.4902	-30.3482	577.4107	7.4727	46.4465	0.44291	19.0588	-3.0194	49.3873	-0.0592	0.0182	-0.0073	-0.0462	0.0165	0.9585
37.0391	54.0072	727.819	66.4467	-246.51	-30.4722	569.9064	7.1143	85.1201	0.27961	34.8514	-2.48	90.2571	-0.0592	0.0182	-0.0073	-0.0462	0.0165	0.9585
37.0523	55.3896	717.5287	66.5502	-242.5502	-29.8828	560.008	4.601	135.3662	-0.20075	55.3495	-0.65975	143.3782	-0.0592	0.0182	-0.0073	-0.0462	0.0165	0.9585
37.0654	56.7066	702.0863	65.386	-236.9918	-28.3884	546.2551	-1.0112	194.179	-1.1399	79.3171	2.9477	205.5722	-0.0592	0.0182	-0.0073	-0.0462	0.0165	0.9585
37.0786	57.7036	679.6733	62.7003	-229.2372	-25.8985	527.2855	-9.6598	254.8902	-2.7489	104.028	8.4779	269.7651	-0.0592	0.0182	-0.0073	-0.0462	0.0165	0.9585
